<svg id="a7292a5a-1cb8-4676-9b5e-25a962d7ad8c" data-name="Layer 1" xmlns="http://www.w3.org/2000/svg" viewBox="0 0 571.25 373.9"><defs><style>.f7732da3-26af-468e-a164-09deb5c8fb5f{fill:#ba89bd;}.f01329da-7a8f-4997-986d-925ff8f9fb1d{fill:#7e3995;}.b48eaa5d-e3e4-45a9-9cf4-7f455dc8d34f{fill:#72bde5;}.afdb9a88-45b4-4d94-aca5-de272694454c{fill:#562979;}.b794fafc-190a-4fa5-85c8-b1778706835e{fill:#3c8bca;}.ba63f24b-9a70-459c-bb7d-0df81a9ae720{fill:#92c6e3;}</style></defs><path class="f7732da3-26af-468e-a164-09deb5c8fb5f" d="M390.64,161.7Q368.8,218.16,347,274.62,321.72,340,296.58,405.39c-4.6,11.94-9.22,23.87-13.66,35.87-1.09,2.94-2.74,4.23-5.85,4.23q-52.65-.06-105.28-.05a5.82,5.82,0,0,1-1.79-.63,26.16,26.16,0,0,0,2.81-4.4q8.44-21.62,16.7-43.29c5.25-13.82,10.37-27.69,15.55-41.53,7-17.77,14-35.52,20.86-53.31q18.65-48.1,37.16-96.25l44.1-114.39c2.15-5.57,4-11.26,6.51-16.7a6.28,6.28,0,0,1,4.54-3.17c34.74-.18,69.48-.14,104.22-.09a13.93,13.93,0,0,1,3.25.81,12.39,12.39,0,0,0-2,2.67c-4.26,11.11-8.39,22.28-12.64,33.4Q400.91,135.16,390.64,161.7Z" transform="translate(-12.01 -71.59)"/><path class="f01329da-7a8f-4997-986d-925ff8f9fb1d" d="M67.77,323.72q-16.54-19.26-33.09-38.54c-7.54-8.84-15-17.77-22.67-26.9,10.18-12.07,20.23-24,30.3-35.91q62.52-73.87,125.1-147.69c1.23-1.44,3.41-3,5.16-3,35.58-.17,71.17-.13,107.7-.13-2.9,3.62-5.32,6.76-7.87,9.8Q200.76,166.8,129.11,252.21c-2,2.36-3.53,5.07-5.28,7.61a15.87,15.87,0,0,0-3.06,2.24c-3.56,4.25-7,8.65-10.49,12.92-11.5,13.82-23,27.66-34.61,41.37C73.35,319.08,70.42,321.28,67.77,323.72Z" transform="translate(-12.01 -71.59)"/><path class="b48eaa5d-e3e4-45a9-9cf4-7f455dc8d34f" d="M317.74,441.6q19.17-22.92,38.34-45.84,21.6-25.78,43.25-51.53Q425,313.69,450.6,283.16c6.4-7.63,12.81-15.26,19.14-22.94a17.29,17.29,0,0,0,1.75-3.43,21,21,0,0,0,3.32-2.64q20-23.64,40-47.39c4.1-4.9,7.86-10.1,11.77-15.16l56.71,66.62c-8.49,10-16.84,19.87-25.17,29.73Q513.29,341,468.47,394.06C455,410,441.33,425.85,427.75,441.74l-2,2.06,0,0c-2-.05-4-.13-6-.14-32.24,0-64.48,0-96.71-.09C321.28,443.59,319.51,442.3,317.74,441.6Z" transform="translate(-12.01 -71.59)"/><path class="afdb9a88-45b4-4d94-aca5-de272694454c" d="M67.77,323.72c2.65-2.44,5.58-4.64,7.9-7.37C87.3,302.64,98.78,288.8,110.28,275c3.54-4.27,6.93-8.67,10.49-12.92a15.87,15.87,0,0,1,3.06-2.24c14.81,17.73,29.52,35.53,44.45,53.15,12.12,14.32,24.51,28.42,36.78,42.62-5.18,13.84-10.3,27.71-15.55,41.53q-8.23,21.69-16.7,43.29a26.16,26.16,0,0,1-2.81,4.4q-36.42-42.94-72.85-85.91C87.29,347.24,77.56,335.45,67.77,323.72Z" transform="translate(-12.01 -71.59)"/><path class="b794fafc-190a-4fa5-85c8-b1778706835e" d="M526.55,191.6c-3.91,5.06-7.67,10.26-11.77,15.16q-19.87,23.81-40,47.39a21,21,0,0,1-3.32,2.64L392,163.09c-.42-.49-.92-.93-1.38-1.39q10.23-26.56,20.44-53.14c4.25-11.12,8.38-22.29,12.64-33.4a12.39,12.39,0,0,1,2-2.67q28.73,33.83,57.45,67.65Q504.9,165.82,526.55,191.6Z" transform="translate(-12.01 -71.59)"/><path class="ba63f24b-9a70-459c-bb7d-0df81a9ae720" d="M425.77,443.8l2-2.06Z" transform="translate(-12.01 -71.59)"/></svg>